<mxfile host="app.diagrams.net" modified="2020-12-09T08:01:46.180Z" agent="5.0 (Windows NT 10.0; Win64; x64) AppleWebKit/537.36 (KHTML, like Gecko) Chrome/87.0.4280.88 Safari/537.36" etag="DmiQxx78WKq3PtWcFh7Y" version="13.10.9" type="github">
  <diagram id="5T9wR4AY3SMY6nAXBZZY" name="Page-1">
    <mxGraphModel dx="1673" dy="908" grid="1" gridSize="10" guides="1" tooltips="1" connect="1" arrows="1" fold="1" page="1" pageScale="1" pageWidth="827" pageHeight="1169" math="0" shadow="0">
      <root>
        <mxCell id="0" />
        <mxCell id="1" parent="0" />
        <mxCell id="foVf6A6aa1Ry9OMPZvBM-12" style="edgeStyle=orthogonalEdgeStyle;rounded=0;orthogonalLoop=1;jettySize=auto;html=1;exitX=0.5;exitY=1;exitDx=0;exitDy=0;entryX=0.5;entryY=0;entryDx=0;entryDy=0;" edge="1" parent="1" source="foVf6A6aa1Ry9OMPZvBM-1" target="foVf6A6aa1Ry9OMPZvBM-3">
          <mxGeometry relative="1" as="geometry" />
        </mxCell>
        <mxCell id="foVf6A6aa1Ry9OMPZvBM-1" value="开始测试" style="ellipse;whiteSpace=wrap;html=1;" vertex="1" parent="1">
          <mxGeometry x="315" y="20" width="80" height="50" as="geometry" />
        </mxCell>
        <mxCell id="foVf6A6aa1Ry9OMPZvBM-29" style="edgeStyle=orthogonalEdgeStyle;rounded=0;orthogonalLoop=1;jettySize=auto;html=1;entryX=0.5;entryY=0;entryDx=0;entryDy=0;" edge="1" parent="1" source="foVf6A6aa1Ry9OMPZvBM-3" target="foVf6A6aa1Ry9OMPZvBM-4">
          <mxGeometry relative="1" as="geometry" />
        </mxCell>
        <mxCell id="foVf6A6aa1Ry9OMPZvBM-50" style="edgeStyle=orthogonalEdgeStyle;rounded=0;orthogonalLoop=1;jettySize=auto;html=1;exitX=1;exitY=0.5;exitDx=0;exitDy=0;entryX=0;entryY=0.5;entryDx=0;entryDy=0;" edge="1" parent="1" source="foVf6A6aa1Ry9OMPZvBM-3" target="foVf6A6aa1Ry9OMPZvBM-10">
          <mxGeometry relative="1" as="geometry" />
        </mxCell>
        <mxCell id="foVf6A6aa1Ry9OMPZvBM-3" value="MESread检验" style="rhombus;whiteSpace=wrap;html=1;" vertex="1" parent="1">
          <mxGeometry x="250" y="120" width="210" height="50" as="geometry" />
        </mxCell>
        <mxCell id="foVf6A6aa1Ry9OMPZvBM-16" style="edgeStyle=orthogonalEdgeStyle;rounded=0;orthogonalLoop=1;jettySize=auto;html=1;exitX=0.5;exitY=1;exitDx=0;exitDy=0;entryX=0.5;entryY=0;entryDx=0;entryDy=0;" edge="1" parent="1" source="foVf6A6aa1Ry9OMPZvBM-4" target="foVf6A6aa1Ry9OMPZvBM-5">
          <mxGeometry relative="1" as="geometry" />
        </mxCell>
        <mxCell id="foVf6A6aa1Ry9OMPZvBM-4" value="老化/测试程序执行" style="rounded=1;whiteSpace=wrap;html=1;" vertex="1" parent="1">
          <mxGeometry x="253" y="290" width="205" height="30" as="geometry" />
        </mxCell>
        <mxCell id="foVf6A6aa1Ry9OMPZvBM-23" style="edgeStyle=orthogonalEdgeStyle;rounded=0;orthogonalLoop=1;jettySize=auto;html=1;exitX=0;exitY=0.5;exitDx=0;exitDy=0;entryX=0.5;entryY=0;entryDx=0;entryDy=0;" edge="1" parent="1" source="foVf6A6aa1Ry9OMPZvBM-5" target="foVf6A6aa1Ry9OMPZvBM-22">
          <mxGeometry relative="1" as="geometry" />
        </mxCell>
        <mxCell id="foVf6A6aa1Ry9OMPZvBM-30" style="edgeStyle=orthogonalEdgeStyle;rounded=0;orthogonalLoop=1;jettySize=auto;html=1;exitX=0.5;exitY=1;exitDx=0;exitDy=0;" edge="1" parent="1" source="foVf6A6aa1Ry9OMPZvBM-5" target="foVf6A6aa1Ry9OMPZvBM-25">
          <mxGeometry relative="1" as="geometry" />
        </mxCell>
        <mxCell id="foVf6A6aa1Ry9OMPZvBM-5" value="MESWrite" style="rhombus;whiteSpace=wrap;html=1;" vertex="1" parent="1">
          <mxGeometry x="250" y="400" width="210" height="40" as="geometry" />
        </mxCell>
        <mxCell id="foVf6A6aa1Ry9OMPZvBM-35" style="edgeStyle=orthogonalEdgeStyle;rounded=0;orthogonalLoop=1;jettySize=auto;html=1;exitX=0.5;exitY=1;exitDx=0;exitDy=0;entryX=0.5;entryY=0;entryDx=0;entryDy=0;" edge="1" parent="1" source="foVf6A6aa1Ry9OMPZvBM-7" target="foVf6A6aa1Ry9OMPZvBM-8">
          <mxGeometry relative="1" as="geometry" />
        </mxCell>
        <mxCell id="foVf6A6aa1Ry9OMPZvBM-7" value="测试数据保存&lt;br&gt;&lt;a href=&quot;http://192.168.6.5:9001/webservices/mestrace/meswebservice.asmx?op=BurnInCreateXmlHeadInfo&quot; style=&quot;color: rgb(102 , 153 , 204) ; font-weight: bold ; font-family: &amp;#34;verdana&amp;#34; ; font-size: 11.2px ; text-align: left ; background-color: rgb(255 , 255 , 255)&quot;&gt;BurnInCreateXmlHeadInfo&lt;/a&gt;&lt;br&gt;&lt;a href=&quot;http://192.168.6.5:9001/webservices/mestrace/meswebservice.asmx?op=BurnInCreateXmlItems&quot; style=&quot;color: rgb(102 , 153 , 204) ; font-weight: bold ; font-family: &amp;#34;verdana&amp;#34; ; font-size: 11.2px ; text-align: left ; background-color: rgb(255 , 255 , 255)&quot;&gt;BurnInCreateXmlItems&lt;/a&gt;&lt;br&gt;&lt;a href=&quot;http://192.168.6.5:9001/webservices/mestrace/meswebservice.asmx?op=BurnInUpdateXmlReport&quot; style=&quot;color: rgb(102 , 153 , 204) ; font-weight: bold ; font-family: &amp;#34;verdana&amp;#34; ; font-size: 11.2px ; text-align: left ; background-color: rgb(255 , 255 , 255)&quot;&gt;BurnInUpdateXmlReport&lt;/a&gt;" style="rounded=1;whiteSpace=wrap;html=1;" vertex="1" parent="1">
          <mxGeometry x="250" y="680" width="207" height="100" as="geometry" />
        </mxCell>
        <mxCell id="foVf6A6aa1Ry9OMPZvBM-8" value="终止测试" style="ellipse;whiteSpace=wrap;html=1;" vertex="1" parent="1">
          <mxGeometry x="313.5" y="820" width="80" height="50" as="geometry" />
        </mxCell>
        <mxCell id="foVf6A6aa1Ry9OMPZvBM-45" style="edgeStyle=orthogonalEdgeStyle;rounded=0;orthogonalLoop=1;jettySize=auto;html=1;entryX=0.5;entryY=0;entryDx=0;entryDy=0;" edge="1" parent="1" source="foVf6A6aa1Ry9OMPZvBM-10" target="foVf6A6aa1Ry9OMPZvBM-43">
          <mxGeometry relative="1" as="geometry" />
        </mxCell>
        <mxCell id="foVf6A6aa1Ry9OMPZvBM-10" value="提示错误信息+log记录" style="rounded=1;whiteSpace=wrap;html=1;" vertex="1" parent="1">
          <mxGeometry x="632.37" y="125" width="132" height="40" as="geometry" />
        </mxCell>
        <mxCell id="foVf6A6aa1Ry9OMPZvBM-14" value="TRUE&lt;br&gt;" style="text;html=1;align=center;verticalAlign=middle;resizable=0;points=[];autosize=1;" vertex="1" parent="1">
          <mxGeometry x="365" y="190" width="50" height="20" as="geometry" />
        </mxCell>
        <mxCell id="foVf6A6aa1Ry9OMPZvBM-15" value="其他" style="text;html=1;align=center;verticalAlign=middle;resizable=0;points=[];autosize=1;" vertex="1" parent="1">
          <mxGeometry x="515" y="140" width="40" height="20" as="geometry" />
        </mxCell>
        <mxCell id="foVf6A6aa1Ry9OMPZvBM-17" value="测试结果PASS/FAIL" style="text;html=1;align=center;verticalAlign=middle;resizable=0;points=[];autosize=1;" vertex="1" parent="1">
          <mxGeometry x="368" y="340" width="120" height="20" as="geometry" />
        </mxCell>
        <mxCell id="foVf6A6aa1Ry9OMPZvBM-38" style="edgeStyle=orthogonalEdgeStyle;rounded=0;orthogonalLoop=1;jettySize=auto;html=1;entryX=0;entryY=0.5;entryDx=0;entryDy=0;" edge="1" parent="1" source="foVf6A6aa1Ry9OMPZvBM-22" target="foVf6A6aa1Ry9OMPZvBM-25">
          <mxGeometry relative="1" as="geometry" />
        </mxCell>
        <mxCell id="foVf6A6aa1Ry9OMPZvBM-22" value="提示错误信息+log记录" style="rounded=1;whiteSpace=wrap;html=1;" vertex="1" parent="1">
          <mxGeometry x="30" y="502.5" width="130" height="45" as="geometry" />
        </mxCell>
        <mxCell id="foVf6A6aa1Ry9OMPZvBM-33" style="edgeStyle=orthogonalEdgeStyle;rounded=0;orthogonalLoop=1;jettySize=auto;html=1;exitX=0.5;exitY=1;exitDx=0;exitDy=0;entryX=0.5;entryY=0;entryDx=0;entryDy=0;" edge="1" parent="1" source="foVf6A6aa1Ry9OMPZvBM-25" target="foVf6A6aa1Ry9OMPZvBM-27">
          <mxGeometry relative="1" as="geometry" />
        </mxCell>
        <mxCell id="foVf6A6aa1Ry9OMPZvBM-40" style="edgeStyle=orthogonalEdgeStyle;rounded=0;orthogonalLoop=1;jettySize=auto;html=1;exitX=1;exitY=0.5;exitDx=0;exitDy=0;entryX=1;entryY=0.5;entryDx=0;entryDy=0;" edge="1" parent="1" source="foVf6A6aa1Ry9OMPZvBM-25" target="foVf6A6aa1Ry9OMPZvBM-7">
          <mxGeometry relative="1" as="geometry">
            <Array as="points">
              <mxPoint x="570" y="525" />
              <mxPoint x="570" y="730" />
            </Array>
          </mxGeometry>
        </mxCell>
        <mxCell id="foVf6A6aa1Ry9OMPZvBM-25" value="是否COC后工序" style="rhombus;whiteSpace=wrap;html=1;" vertex="1" parent="1">
          <mxGeometry x="251" y="500" width="209" height="50" as="geometry" />
        </mxCell>
        <mxCell id="foVf6A6aa1Ry9OMPZvBM-34" style="edgeStyle=orthogonalEdgeStyle;rounded=0;orthogonalLoop=1;jettySize=auto;html=1;exitX=0.5;exitY=1;exitDx=0;exitDy=0;entryX=0.5;entryY=0;entryDx=0;entryDy=0;" edge="1" parent="1" source="foVf6A6aa1Ry9OMPZvBM-27" target="foVf6A6aa1Ry9OMPZvBM-7">
          <mxGeometry relative="1" as="geometry" />
        </mxCell>
        <mxCell id="foVf6A6aa1Ry9OMPZvBM-27" value="查询COC前的最后一次数据&lt;br&gt;&lt;a href=&quot;http://192.168.6.5:9001/webservices/mestrace/meswebservice.asmx?op=BurnInQueryXmlReport&quot; style=&quot;color: rgb(204 , 51 , 0) ; font-weight: bold ; font-family: &amp;#34;verdana&amp;#34; ; font-size: 11.2px ; text-align: left ; background-color: rgb(255 , 255 , 255)&quot;&gt;BurnInQueryXmlReport&lt;/a&gt;&lt;br&gt;做比较数据" style="rounded=1;whiteSpace=wrap;html=1;" vertex="1" parent="1">
          <mxGeometry x="251" y="582.5" width="205" height="57.5" as="geometry" />
        </mxCell>
        <mxCell id="foVf6A6aa1Ry9OMPZvBM-31" value="TRUE" style="text;html=1;align=center;verticalAlign=middle;resizable=0;points=[];autosize=1;" vertex="1" parent="1">
          <mxGeometry x="365" y="450" width="50" height="20" as="geometry" />
        </mxCell>
        <mxCell id="foVf6A6aa1Ry9OMPZvBM-32" value="其他" style="text;html=1;align=center;verticalAlign=middle;resizable=0;points=[];autosize=1;" vertex="1" parent="1">
          <mxGeometry x="150" y="390" width="40" height="20" as="geometry" />
        </mxCell>
        <mxCell id="foVf6A6aa1Ry9OMPZvBM-37" value="报错失败保存错误日志" style="text;html=1;align=center;verticalAlign=middle;resizable=0;points=[];autosize=1;" vertex="1" parent="1">
          <mxGeometry x="365" y="790" width="140" height="20" as="geometry" />
        </mxCell>
        <mxCell id="foVf6A6aa1Ry9OMPZvBM-39" value="是" style="text;html=1;align=center;verticalAlign=middle;resizable=0;points=[];autosize=1;" vertex="1" parent="1">
          <mxGeometry x="365" y="550" width="30" height="20" as="geometry" />
        </mxCell>
        <mxCell id="foVf6A6aa1Ry9OMPZvBM-41" value="否" style="text;html=1;align=center;verticalAlign=middle;resizable=0;points=[];autosize=1;" vertex="1" parent="1">
          <mxGeometry x="485" y="500" width="30" height="20" as="geometry" />
        </mxCell>
        <mxCell id="foVf6A6aa1Ry9OMPZvBM-46" style="edgeStyle=orthogonalEdgeStyle;rounded=0;orthogonalLoop=1;jettySize=auto;html=1;exitX=0;exitY=0.5;exitDx=0;exitDy=0;entryX=1;entryY=0.5;entryDx=0;entryDy=0;" edge="1" parent="1" source="foVf6A6aa1Ry9OMPZvBM-43" target="foVf6A6aa1Ry9OMPZvBM-4">
          <mxGeometry relative="1" as="geometry" />
        </mxCell>
        <mxCell id="foVf6A6aa1Ry9OMPZvBM-48" style="edgeStyle=orthogonalEdgeStyle;rounded=0;orthogonalLoop=1;jettySize=auto;html=1;exitX=0.5;exitY=1;exitDx=0;exitDy=0;" edge="1" parent="1" source="foVf6A6aa1Ry9OMPZvBM-43" target="foVf6A6aa1Ry9OMPZvBM-8">
          <mxGeometry relative="1" as="geometry">
            <Array as="points">
              <mxPoint x="701" y="845" />
            </Array>
          </mxGeometry>
        </mxCell>
        <mxCell id="foVf6A6aa1Ry9OMPZvBM-43" value="操作员决定&lt;br&gt;程序是否正常执行&lt;br&gt;(是取出还是正常执行，如正常执行，则MESread失败的产品后续流程都不用执行)" style="rhombus;whiteSpace=wrap;html=1;" vertex="1" parent="1">
          <mxGeometry x="571.75" y="230" width="253.25" height="150" as="geometry" />
        </mxCell>
        <mxCell id="foVf6A6aa1Ry9OMPZvBM-47" value="继续" style="text;html=1;align=center;verticalAlign=middle;resizable=0;points=[];autosize=1;" vertex="1" parent="1">
          <mxGeometry x="490" y="280" width="40" height="20" as="geometry" />
        </mxCell>
        <mxCell id="foVf6A6aa1Ry9OMPZvBM-49" value="终止" style="text;html=1;align=center;verticalAlign=middle;resizable=0;points=[];autosize=1;" vertex="1" parent="1">
          <mxGeometry x="710" y="400" width="40" height="20" as="geometry" />
        </mxCell>
        <mxCell id="foVf6A6aa1Ry9OMPZvBM-51" value="开放一个配置&lt;br&gt;是否需要执行MES管控&lt;br&gt;默认开启状态&lt;br&gt;（如不开启，MESread,MESwrite这两个函数不执行，只保存数据）" style="rounded=1;whiteSpace=wrap;html=1;" vertex="1" parent="1">
          <mxGeometry x="20" y="20" width="170" height="150" as="geometry" />
        </mxCell>
      </root>
    </mxGraphModel>
  </diagram>
</mxfile>
